# xmcd
#
# Track frame offsets:
#	150
#	17376
#	32149
#	53354
#	71908
#	90436
#	106393
#	126999
#	141417
#	166043
#	183230
#
# Disc length: 2829 seconds
#
# Revision: 1
# Processed by: cddbd v1.5.2PL0 Copyright (c) Steve Scherf et al.
# Submitted via: audiograbber 1.83.01
#
DISCID=890b0b0b
DTITLE=Sir Olliver Mally and Frank Schwinn - Devils-Mokeys-Aliens
DYEAR=2013
DGENRE=Blues
TTITLE0=Devil´s gone fishing
TTITLE1=The Cape
TTITLE2=One Note and you are dead
TTITLE3=Nasty Habits
TTITLE4=Hard Luck
TTITLE5=Stuck at the Airport
TTITLE6=Trapped
TTITLE7=Monkey on my back
TTITLE8=Jungleland
TTITLE9=Aliens please come
TTITLE10=Aint no looking back
EXTD=
EXTT0=
EXTT1=
EXTT2=
EXTT3=
EXTT4=
EXTT5=
EXTT6=
EXTT7=
EXTT8=
EXTT9=
EXTT10=
PLAYORDER=
